<mxfile host="app.diagrams.net" modified="2021-11-14T15:03:43.680Z" agent="5.0 (Macintosh; Intel Mac OS X 10_15_7) AppleWebKit/537.36 (KHTML, like Gecko) Chrome/95.0.4638.69 Safari/537.36 Edg/95.0.1020.44" etag="hFLqFsnOIYiENtP3zeSl" version="15.2.9" type="github">
  <diagram id="R7MD-RuWkarthDHZs2-p" name="第 1 页">
    <mxGraphModel dx="742" dy="533" grid="1" gridSize="10" guides="1" tooltips="1" connect="1" arrows="1" fold="1" page="1" pageScale="1" pageWidth="827" pageHeight="1169" math="0" shadow="0">
      <root>
        <mxCell id="0" />
        <mxCell id="1" parent="0" />
        <mxCell id="0Q1nOrYQO0X4sr8mSm66-21" style="edgeStyle=orthogonalEdgeStyle;rounded=0;sketch=1;orthogonalLoop=1;jettySize=auto;html=1;exitX=1;exitY=0.5;exitDx=0;exitDy=0;entryX=0;entryY=0.5;entryDx=0;entryDy=0;fontFamily=Comic Sans MS;fontSize=15;strokeWidth=2;" edge="1" parent="1" source="0Q1nOrYQO0X4sr8mSm66-1" target="0Q1nOrYQO0X4sr8mSm66-3">
          <mxGeometry relative="1" as="geometry" />
        </mxCell>
        <mxCell id="0Q1nOrYQO0X4sr8mSm66-1" value="&lt;font style=&quot;font-size: 15px&quot;&gt;1.创建socket&lt;/font&gt;" style="rounded=0;whiteSpace=wrap;html=1;fillColor=#fff2cc;strokeColor=#d6b656;fontFamily=Comic Sans MS;labelBorderColor=none;glass=0;sketch=1;shadow=0;fontStyle=1" vertex="1" parent="1">
          <mxGeometry x="410" y="120" width="150" height="40" as="geometry" />
        </mxCell>
        <mxCell id="0Q1nOrYQO0X4sr8mSm66-2" value="server" style="text;html=1;align=center;verticalAlign=middle;resizable=0;points=[];autosize=1;strokeColor=none;fillColor=none;fontSize=20;fontFamily=Comic Sans MS;fontStyle=0" vertex="1" parent="1">
          <mxGeometry x="460" y="85" width="80" height="30" as="geometry" />
        </mxCell>
        <mxCell id="0Q1nOrYQO0X4sr8mSm66-7" style="edgeStyle=orthogonalEdgeStyle;rounded=0;sketch=1;orthogonalLoop=1;jettySize=auto;html=1;exitX=0.5;exitY=1;exitDx=0;exitDy=0;entryX=0.5;entryY=0;entryDx=0;entryDy=0;fontFamily=Comic Sans MS;fontSize=15;strokeWidth=2;" edge="1" parent="1" source="0Q1nOrYQO0X4sr8mSm66-3" target="0Q1nOrYQO0X4sr8mSm66-6">
          <mxGeometry relative="1" as="geometry" />
        </mxCell>
        <mxCell id="0Q1nOrYQO0X4sr8mSm66-3" value="2.bind()" style="rounded=0;whiteSpace=wrap;html=1;fillColor=#fff2cc;strokeColor=#d6b656;fontFamily=Comic Sans MS;labelBorderColor=none;glass=0;sketch=1;shadow=0;fontStyle=1;fontSize=15;" vertex="1" parent="1">
          <mxGeometry x="590" y="120" width="120" height="40" as="geometry" />
        </mxCell>
        <mxCell id="0Q1nOrYQO0X4sr8mSm66-22" style="edgeStyle=orthogonalEdgeStyle;rounded=0;sketch=1;orthogonalLoop=1;jettySize=auto;html=1;exitX=0;exitY=0.5;exitDx=0;exitDy=0;entryX=1;entryY=0.5;entryDx=0;entryDy=0;fontFamily=Comic Sans MS;fontSize=15;strokeWidth=2;" edge="1" parent="1" source="0Q1nOrYQO0X4sr8mSm66-6" target="0Q1nOrYQO0X4sr8mSm66-8">
          <mxGeometry relative="1" as="geometry" />
        </mxCell>
        <mxCell id="0Q1nOrYQO0X4sr8mSm66-6" value="3.listen()" style="rounded=0;whiteSpace=wrap;html=1;fillColor=#fff2cc;strokeColor=#d6b656;fontFamily=Comic Sans MS;labelBorderColor=none;glass=0;sketch=1;shadow=0;fontStyle=1;fontSize=15;" vertex="1" parent="1">
          <mxGeometry x="590" y="190" width="120" height="40" as="geometry" />
        </mxCell>
        <mxCell id="0Q1nOrYQO0X4sr8mSm66-33" style="edgeStyle=orthogonalEdgeStyle;rounded=0;sketch=1;orthogonalLoop=1;jettySize=auto;html=1;exitX=0.5;exitY=1;exitDx=0;exitDy=0;entryX=0.5;entryY=0;entryDx=0;entryDy=0;fontFamily=Comic Sans MS;fontSize=15;strokeWidth=2;" edge="1" parent="1" source="0Q1nOrYQO0X4sr8mSm66-8" target="0Q1nOrYQO0X4sr8mSm66-32">
          <mxGeometry relative="1" as="geometry" />
        </mxCell>
        <mxCell id="0Q1nOrYQO0X4sr8mSm66-8" value="4.accept(listen_fd)" style="rounded=0;whiteSpace=wrap;html=1;fillColor=#f8cecc;strokeColor=#b85450;fontFamily=Comic Sans MS;labelBorderColor=none;glass=0;sketch=1;shadow=0;fontStyle=1;fontSize=15;" vertex="1" parent="1">
          <mxGeometry x="410" y="190" width="150" height="40" as="geometry" />
        </mxCell>
        <mxCell id="0Q1nOrYQO0X4sr8mSm66-10" style="edgeStyle=orthogonalEdgeStyle;rounded=0;orthogonalLoop=1;jettySize=auto;html=1;exitX=0.5;exitY=1;exitDx=0;exitDy=0;entryX=0.5;entryY=0;entryDx=0;entryDy=0;fontFamily=Comic Sans MS;fontSize=15;sketch=1;strokeWidth=2;" edge="1" parent="1" source="0Q1nOrYQO0X4sr8mSm66-11" target="0Q1nOrYQO0X4sr8mSm66-14">
          <mxGeometry relative="1" as="geometry" />
        </mxCell>
        <mxCell id="0Q1nOrYQO0X4sr8mSm66-11" value="&lt;font style=&quot;font-size: 15px&quot;&gt;1.创建socket&lt;/font&gt;" style="rounded=0;whiteSpace=wrap;html=1;fillColor=#fff2cc;strokeColor=#d6b656;fontFamily=Comic Sans MS;labelBorderColor=none;glass=0;sketch=1;shadow=0;fontStyle=1" vertex="1" parent="1">
          <mxGeometry x="170" y="120" width="120" height="40" as="geometry" />
        </mxCell>
        <mxCell id="0Q1nOrYQO0X4sr8mSm66-12" value="client" style="text;html=1;align=center;verticalAlign=middle;resizable=0;points=[];autosize=1;strokeColor=none;fillColor=none;fontSize=20;fontFamily=Comic Sans MS;fontStyle=0" vertex="1" parent="1">
          <mxGeometry x="195" y="85" width="70" height="30" as="geometry" />
        </mxCell>
        <mxCell id="0Q1nOrYQO0X4sr8mSm66-31" style="edgeStyle=orthogonalEdgeStyle;rounded=0;sketch=1;orthogonalLoop=1;jettySize=auto;html=1;exitX=0.5;exitY=1;exitDx=0;exitDy=0;entryX=0.5;entryY=0;entryDx=0;entryDy=0;fontFamily=Comic Sans MS;fontSize=15;strokeWidth=2;" edge="1" parent="1" source="0Q1nOrYQO0X4sr8mSm66-14" target="0Q1nOrYQO0X4sr8mSm66-16">
          <mxGeometry relative="1" as="geometry" />
        </mxCell>
        <mxCell id="0Q1nOrYQO0X4sr8mSm66-14" value="2.connect()" style="rounded=0;whiteSpace=wrap;html=1;fillColor=#f8cecc;strokeColor=#b85450;fontFamily=Comic Sans MS;labelBorderColor=none;glass=0;sketch=1;shadow=0;fontStyle=1;fontSize=15;" vertex="1" parent="1">
          <mxGeometry x="170" y="190" width="120" height="40" as="geometry" />
        </mxCell>
        <mxCell id="0Q1nOrYQO0X4sr8mSm66-55" style="edgeStyle=orthogonalEdgeStyle;rounded=0;sketch=1;orthogonalLoop=1;jettySize=auto;html=1;exitX=0.5;exitY=1;exitDx=0;exitDy=0;fontFamily=Comic Sans MS;fontSize=15;startArrow=none;startFill=0;strokeWidth=2;" edge="1" parent="1" source="0Q1nOrYQO0X4sr8mSm66-16" target="0Q1nOrYQO0X4sr8mSm66-54">
          <mxGeometry relative="1" as="geometry" />
        </mxCell>
        <mxCell id="0Q1nOrYQO0X4sr8mSm66-16" value="3.write(conn_fd)" style="rounded=0;whiteSpace=wrap;html=1;fillColor=#f8cecc;strokeColor=#b85450;fontFamily=Comic Sans MS;labelBorderColor=none;glass=0;sketch=1;shadow=0;fontStyle=1;fontSize=15;" vertex="1" parent="1">
          <mxGeometry x="170" y="310" width="120" height="40" as="geometry" />
        </mxCell>
        <mxCell id="0Q1nOrYQO0X4sr8mSm66-53" style="edgeStyle=orthogonalEdgeStyle;rounded=0;sketch=1;orthogonalLoop=1;jettySize=auto;html=1;exitX=0.5;exitY=1;exitDx=0;exitDy=0;fontFamily=Comic Sans MS;fontSize=15;startArrow=none;startFill=0;strokeWidth=2;" edge="1" parent="1" source="0Q1nOrYQO0X4sr8mSm66-32" target="0Q1nOrYQO0X4sr8mSm66-52">
          <mxGeometry relative="1" as="geometry" />
        </mxCell>
        <mxCell id="0Q1nOrYQO0X4sr8mSm66-32" value="5.read(conn_fd)" style="rounded=0;whiteSpace=wrap;html=1;fillColor=#f8cecc;strokeColor=#b85450;fontFamily=Comic Sans MS;labelBorderColor=none;glass=0;sketch=1;shadow=0;fontStyle=1;fontSize=15;" vertex="1" parent="1">
          <mxGeometry x="417.5" y="310" width="135" height="40" as="geometry" />
        </mxCell>
        <mxCell id="0Q1nOrYQO0X4sr8mSm66-46" value="" style="shape=flexArrow;endArrow=classic;startArrow=classic;html=1;fontFamily=Comic Sans MS;fontSize=15;strokeWidth=2;" edge="1" parent="1">
          <mxGeometry width="100" height="100" relative="1" as="geometry">
            <mxPoint x="290" y="280" as="sourcePoint" />
            <mxPoint x="430" y="280" as="targetPoint" />
          </mxGeometry>
        </mxCell>
        <mxCell id="0Q1nOrYQO0X4sr8mSm66-47" value="三次握手" style="text;html=1;align=center;verticalAlign=middle;resizable=0;points=[];autosize=1;strokeColor=none;fillColor=none;fontSize=15;fontFamily=Comic Sans MS;" vertex="1" parent="1">
          <mxGeometry x="320" y="250" width="80" height="20" as="geometry" />
        </mxCell>
        <mxCell id="0Q1nOrYQO0X4sr8mSm66-48" value="5.close(conn_fd)" style="rounded=0;whiteSpace=wrap;html=1;fillColor=#fff2cc;strokeColor=#d6b656;fontFamily=Comic Sans MS;labelBorderColor=none;glass=0;sketch=1;shadow=0;fontStyle=1;fontSize=15;" vertex="1" parent="1">
          <mxGeometry x="170" y="500" width="120" height="40" as="geometry" />
        </mxCell>
        <mxCell id="0Q1nOrYQO0X4sr8mSm66-61" style="edgeStyle=orthogonalEdgeStyle;rounded=0;sketch=1;orthogonalLoop=1;jettySize=auto;html=1;exitX=0.5;exitY=1;exitDx=0;exitDy=0;entryX=0.5;entryY=0;entryDx=0;entryDy=0;fontFamily=Comic Sans MS;fontSize=15;startArrow=none;startFill=0;strokeWidth=2;" edge="1" parent="1" source="0Q1nOrYQO0X4sr8mSm66-52" target="0Q1nOrYQO0X4sr8mSm66-56">
          <mxGeometry relative="1" as="geometry" />
        </mxCell>
        <mxCell id="0Q1nOrYQO0X4sr8mSm66-52" value="6.解析http报文" style="rounded=0;whiteSpace=wrap;html=1;fillColor=#fff2cc;strokeColor=#d6b656;fontFamily=Comic Sans MS;labelBorderColor=none;glass=0;sketch=1;shadow=0;fontStyle=1;fontSize=15;" vertex="1" parent="1">
          <mxGeometry x="417.5" y="370" width="135" height="40" as="geometry" />
        </mxCell>
        <mxCell id="0Q1nOrYQO0X4sr8mSm66-62" style="edgeStyle=orthogonalEdgeStyle;rounded=0;sketch=1;orthogonalLoop=1;jettySize=auto;html=1;exitX=0.5;exitY=1;exitDx=0;exitDy=0;fontFamily=Comic Sans MS;fontSize=15;startArrow=none;startFill=0;strokeWidth=2;" edge="1" parent="1" source="0Q1nOrYQO0X4sr8mSm66-54" target="0Q1nOrYQO0X4sr8mSm66-48">
          <mxGeometry relative="1" as="geometry" />
        </mxCell>
        <mxCell id="0Q1nOrYQO0X4sr8mSm66-54" value="4.read(conn_fd)" style="rounded=0;whiteSpace=wrap;html=1;fillColor=#f8cecc;strokeColor=#b85450;fontFamily=Comic Sans MS;labelBorderColor=none;glass=0;sketch=1;shadow=0;fontStyle=1;fontSize=15;" vertex="1" parent="1">
          <mxGeometry x="170" y="430" width="120" height="40" as="geometry" />
        </mxCell>
        <mxCell id="0Q1nOrYQO0X4sr8mSm66-64" style="edgeStyle=orthogonalEdgeStyle;rounded=0;sketch=1;orthogonalLoop=1;jettySize=auto;html=1;exitX=0.5;exitY=1;exitDx=0;exitDy=0;entryX=0.5;entryY=0;entryDx=0;entryDy=0;fontFamily=Comic Sans MS;fontSize=15;startArrow=none;startFill=0;strokeWidth=2;" edge="1" parent="1" source="0Q1nOrYQO0X4sr8mSm66-56" target="0Q1nOrYQO0X4sr8mSm66-63">
          <mxGeometry relative="1" as="geometry" />
        </mxCell>
        <mxCell id="0Q1nOrYQO0X4sr8mSm66-56" value="7.write(conn_fd)" style="rounded=0;whiteSpace=wrap;html=1;fillColor=#f8cecc;strokeColor=#b85450;fontFamily=Comic Sans MS;labelBorderColor=none;glass=0;sketch=1;shadow=0;fontStyle=1;fontSize=15;" vertex="1" parent="1">
          <mxGeometry x="417.5" y="430" width="135" height="40" as="geometry" />
        </mxCell>
        <mxCell id="0Q1nOrYQO0X4sr8mSm66-57" value="http response" style="text;html=1;align=center;verticalAlign=middle;resizable=0;points=[];autosize=1;strokeColor=none;fillColor=none;fontSize=15;fontFamily=Comic Sans MS;" vertex="1" parent="1">
          <mxGeometry x="560" y="440" width="110" height="20" as="geometry" />
        </mxCell>
        <mxCell id="0Q1nOrYQO0X4sr8mSm66-60" value="http request" style="text;html=1;align=center;verticalAlign=middle;resizable=0;points=[];autosize=1;strokeColor=none;fillColor=none;fontSize=15;fontFamily=Comic Sans MS;" vertex="1" parent="1">
          <mxGeometry x="70" y="320" width="100" height="20" as="geometry" />
        </mxCell>
        <mxCell id="0Q1nOrYQO0X4sr8mSm66-63" value="8.close(conn_fd)" style="rounded=0;whiteSpace=wrap;html=1;fillColor=#fff2cc;strokeColor=#d6b656;fontFamily=Comic Sans MS;labelBorderColor=none;glass=0;sketch=1;shadow=0;fontStyle=1;fontSize=15;" vertex="1" parent="1">
          <mxGeometry x="417.5" y="500" width="135" height="40" as="geometry" />
        </mxCell>
      </root>
    </mxGraphModel>
  </diagram>
</mxfile>
